{"glyphs":{"0":{"ha":606,"x_min":14,"x_max":594,"o":"m 124 1010 q 155 1035 131 1032 q 310 1039 179 1039 q 465 1035 440 1039 q 496 1010 489 1032 q 504 994 499 1001 q 515 982 510 988 q 526 975 521 976 q 546 938 546 967 q 569 893 546 906 q 590 839 586 885 q 593 568 593 793 q 590 297 593 343 q 569 242 586 250 q 546 199 546 229 q 522 157 546 169 q 504 141 513 153 q 494 118 496 129 q 468 94 492 97 q 310 90 444 90 q 135 99 149 90 q 125 118 126 106 q 115 141 124 129 q 97 157 107 153 q 74 189 74 171 q 65 204 74 196 q 44 218 57 213 l 14 229 l 14 882 l 44 893 q 74 936 74 906 q 93 975 74 967 q 104 982 99 976 q 115 994 110 988 q 124 1010 121 1001 m 394 843 q 313 857 389 857 q 235 851 251 857 q 219 819 219 844 q 194 785 219 799 q 178 771 183 779 q 172 740 174 763 q 174 679 171 718 q 177 622 175 642 q 183 594 179 603 q 194 586 188 586 q 204 590 200 586 q 212 599 208 593 q 217 614 215 606 q 222 628 218 621 q 232 642 226 636 q 244 653 238 649 q 268 683 268 665 q 288 708 268 700 q 315 744 306 715 q 367 775 326 772 q 401 791 396 778 q 394 843 407 804 m 449 465 q 428 588 449 599 q 414 564 421 585 q 400 542 410 553 q 383 528 390 531 q 364 496 364 519 q 357 475 364 486 q 340 458 350 464 q 315 428 315 446 q 309 413 315 421 q 296 403 303 406 q 238 357 263 389 q 219 301 214 325 q 238 276 225 281 q 310 272 250 272 q 382 276 368 272 q 399 300 396 281 q 403 315 399 307 q 413 328 407 322 q 426 338 419 335 q 445 367 442 346 q 449 465 449 389 z "},"1":{"ha":618,"x_min":14,"x_max":607,"o":"m 189 986 q 202 1006 196 1001 q 235 1013 208 1011 q 313 1013 261 1015 l 425 1008 l 436 247 q 606 236 521 242 l 606 67 l 14 67 l 14 236 q 183 247 99 242 l 183 694 q 14 707 99 700 l 14 792 q 19 866 14 854 q 50 882 24 878 q 93 918 86 889 q 97 933 94 926 q 106 942 100 939 q 119 949 111 946 q 139 951 126 951 q 189 986 179 956 z "},"2":{"ha":593,"x_min":13,"x_max":581,"o":"m 118 1068 q 301 1072 128 1075 q 472 1060 458 1069 q 482 1042 479 1054 q 484 1032 482 1036 q 489 1023 486 1028 q 494 1015 492 1018 q 501 1008 497 1011 q 510 1003 506 1004 q 532 967 532 989 q 557 931 532 943 q 576 897 572 921 q 581 778 581 872 q 576 661 581 685 q 557 628 572 638 q 532 597 532 615 q 510 568 532 582 q 492 552 500 564 q 482 529 483 540 q 460 505 479 510 q 344 496 440 500 l 213 489 l 213 308 l 575 296 l 575 126 l 328 124 q 199 124 257 122 q 106 127 140 125 q 69 132 72 129 q 60 371 58 143 q 65 564 61 525 q 85 615 68 603 q 113 654 106 633 q 143 672 118 668 q 251 679 168 676 q 378 692 367 682 q 385 710 383 697 q 390 726 386 718 q 400 740 394 733 q 413 749 406 746 q 436 785 436 763 q 413 821 436 807 q 394 837 403 825 q 385 860 386 849 q 369 883 382 879 q 297 888 356 888 q 224 883 238 888 q 208 860 211 879 q 199 838 207 849 q 182 822 190 826 q 165 805 174 817 q 156 782 157 793 q 148 764 153 769 q 130 756 143 758 q 85 754 117 754 l 19 754 l 15 842 q 16 917 13 900 q 38 942 19 933 q 61 972 61 956 q 85 1002 61 989 q 110 1038 110 1015 q 118 1068 110 1060 z "},"3":{"ha":568,"x_min":11,"x_max":557,"o":"m 111 1010 q 140 1035 118 1031 q 284 1039 163 1039 q 428 1035 406 1039 q 458 1010 451 1031 q 472 988 463 999 q 489 975 481 978 q 508 938 508 967 q 532 893 508 906 q 552 861 549 885 q 556 749 556 838 q 552 636 556 660 q 532 604 549 613 q 508 562 508 592 q 532 519 508 532 q 552 487 549 510 q 556 374 556 464 q 552 262 556 285 q 532 229 549 239 q 508 193 508 217 q 485 157 508 171 q 467 141 475 153 q 457 118 458 129 q 432 94 454 97 q 284 90 410 90 q 136 94 158 90 q 111 118 114 97 q 108 130 111 124 q 102 141 106 136 q 94 150 99 146 q 83 157 89 154 q 61 193 61 171 q 38 229 61 217 q 17 255 21 239 q 15 324 13 271 l 18 404 l 85 404 q 141 400 129 404 q 156 376 153 396 q 160 362 157 369 q 170 348 164 354 q 182 338 176 342 q 193 328 188 335 q 203 315 199 322 q 208 300 207 307 q 223 276 211 281 q 285 272 235 272 q 347 276 335 272 q 361 300 358 281 q 365 315 361 307 q 376 328 369 322 q 389 338 382 335 q 410 369 410 351 q 389 399 410 386 q 371 415 379 403 q 361 438 363 426 q 351 456 358 450 q 329 465 344 463 q 272 471 314 468 l 188 476 l 188 646 l 269 650 q 340 658 325 653 q 363 681 356 663 q 392 717 374 710 q 411 755 411 725 q 392 793 411 785 q 376 806 385 796 q 361 829 367 817 q 350 847 357 842 q 329 855 343 853 q 285 857 315 857 q 227 852 240 857 q 207 829 214 847 q 178 793 196 800 q 156 758 160 788 q 142 735 153 739 q 85 731 131 731 l 18 731 l 15 811 q 17 881 13 864 q 38 906 21 897 q 54 922 47 911 q 61 943 61 933 q 81 975 61 967 q 97 988 88 978 q 111 1010 106 999 z "},"4":{"ha":611,"x_min":13,"x_max":599,"o":"m 169 814 q 194 845 169 826 q 218 875 218 864 q 242 906 218 893 q 254 916 249 910 q 263 929 260 922 q 267 943 267 936 q 285 975 267 967 q 296 982 290 976 q 307 995 301 988 q 315 1011 313 1003 q 335 1035 322 1031 q 396 1036 347 1039 l 465 1032 q 478 525 471 779 l 599 514 l 599 332 q 478 319 538 326 l 465 90 l 321 90 q 308 319 314 206 q 18 332 164 326 l 15 486 q 16 618 13 593 q 36 653 19 643 q 61 688 61 665 q 85 724 61 711 q 108 756 108 738 q 139 785 108 768 q 169 814 169 801 m 308 585 q 296 647 308 646 q 251 615 282 651 q 215 554 219 579 q 219 530 213 535 q 260 525 226 525 l 308 525 l 308 585 z "},"5":{"ha":568,"x_min":11,"x_max":557,"o":"m 69 996 q 314 1000 79 1003 l 550 996 l 550 828 q 213 815 381 821 l 213 635 l 336 631 q 407 628 386 629 q 444 623 428 626 q 463 615 460 619 q 472 599 467 610 q 494 561 482 571 q 508 532 508 556 q 532 496 508 508 q 552 464 549 486 q 556 356 556 442 q 552 249 556 271 q 532 218 549 226 q 508 176 508 204 q 490 132 508 156 q 469 93 472 108 q 442 70 467 74 q 290 67 418 67 q 137 70 160 67 q 111 94 114 74 q 101 117 110 106 q 83 133 93 128 q 61 163 61 147 q 38 193 61 181 q 17 219 21 203 q 15 288 13 235 l 18 368 l 83 372 q 125 373 110 375 q 146 366 140 371 q 157 347 151 361 q 185 310 168 317 q 208 275 204 304 q 224 251 211 256 q 290 247 236 247 q 357 251 344 247 q 372 275 369 256 q 378 290 374 282 q 388 305 382 299 q 400 314 394 311 q 422 351 421 326 q 404 383 424 375 q 388 397 396 386 q 375 418 379 407 q 347 442 367 438 q 240 449 328 447 q 132 456 150 451 q 111 481 114 461 q 107 496 111 488 q 97 510 103 504 q 83 519 90 517 q 65 564 68 528 q 61 760 61 600 q 69 996 61 986 z "},"6":{"ha":642,"x_min":14,"x_max":631,"o":"m 122 1008 l 122 1039 l 319 1036 q 492 1029 467 1033 q 518 1004 517 1025 q 528 982 521 992 q 546 969 536 972 q 563 959 556 967 q 569 942 569 951 q 594 903 569 922 q 617 875 611 893 q 622 808 622 857 l 624 731 l 554 726 q 507 726 524 724 q 485 733 490 728 q 472 754 479 739 q 461 776 468 767 q 450 785 454 785 q 440 790 446 785 q 429 803 435 794 q 418 821 424 811 q 390 853 404 849 q 313 856 376 858 q 253 851 269 853 q 230 843 236 849 q 222 824 224 838 q 194 783 217 796 q 175 763 179 776 q 174 715 171 750 l 176 658 l 346 658 q 494 655 472 658 q 518 631 517 651 q 531 607 521 618 q 553 592 540 596 q 582 557 582 579 q 589 536 582 547 q 606 519 596 525 q 622 501 617 513 q 628 464 626 490 q 629 375 629 438 q 626 262 629 285 q 606 229 622 239 q 582 188 582 218 q 558 144 582 157 q 541 129 549 140 q 531 107 533 118 q 502 82 528 86 q 332 75 476 78 q 331 75 331 75 l 135 72 l 124 100 q 115 116 121 108 q 104 129 110 124 q 93 136 99 135 q 74 175 74 144 q 44 218 74 206 l 14 229 l 14 542 q 17 815 14 768 q 38 869 21 861 q 63 919 63 882 q 65 942 63 933 q 74 956 68 950 q 93 967 81 963 q 122 1008 122 978 m 422 438 q 403 461 419 457 q 304 468 383 465 q 179 464 186 471 q 171 396 171 456 q 176 346 171 358 q 200 326 181 333 q 222 310 213 322 q 233 288 232 299 q 250 264 236 268 q 328 260 264 260 q 406 264 392 260 q 422 288 419 268 q 432 310 424 299 q 450 326 440 322 q 472 363 472 340 q 450 399 472 385 q 432 415 440 403 q 422 438 424 426 z "},"7":{"ha":632,"x_min":11,"x_max":619,"o":"m 497 599 q 473 567 497 586 q 449 538 449 549 q 425 507 449 521 q 411 496 415 503 q 404 463 407 489 q 400 399 401 438 q 397 281 399 361 l 394 67 l 324 63 q 263 64 275 60 q 243 90 251 68 q 231 364 231 121 l 231 607 l 265 639 q 319 681 297 671 q 330 687 325 682 q 338 699 335 692 q 340 713 340 706 q 369 747 340 738 q 401 780 389 756 q 403 814 414 804 q 218 821 396 821 q 97 823 132 821 q 47 829 61 825 q 26 844 32 833 q 14 924 15 864 q 22 996 13 985 q 321 1000 32 1003 l 611 996 q 619 713 615 853 l 588 700 q 557 665 557 689 q 526 628 557 640 q 506 615 514 624 q 497 599 497 607 z "},"8":{"ha":594,"x_min":14,"x_max":582,"o":"m 124 986 q 154 1010 131 1007 q 304 1014 178 1014 q 471 1006 454 1014 q 483 986 479 1001 q 497 963 488 974 q 514 950 507 953 q 533 913 533 942 q 557 869 533 882 q 574 852 569 863 q 580 817 578 842 q 582 736 582 793 q 578 634 582 656 q 557 604 574 613 q 533 544 533 592 q 557 483 533 496 q 578 452 574 474 q 582 350 582 431 q 578 248 582 269 q 557 218 574 226 q 533 181 533 204 q 510 144 533 158 q 492 129 500 140 q 482 107 485 118 q 456 83 479 86 q 297 79 432 79 q 139 83 163 79 q 113 107 115 86 q 108 122 111 114 q 98 135 104 129 q 85 144 92 142 q 63 175 63 158 q 38 206 63 192 q 18 237 22 214 q 14 344 14 260 q 18 451 14 429 q 38 483 22 474 q 63 542 63 496 q 58 581 63 569 q 38 596 53 592 q 18 621 22 600 q 14 729 14 642 q 15 815 14 790 q 22 851 17 840 q 38 869 26 863 q 63 913 63 882 q 88 950 63 944 q 108 963 97 953 q 124 986 119 974 m 388 804 q 380 820 383 815 q 366 828 376 825 q 343 833 356 832 q 304 833 331 833 q 255 831 269 833 q 233 824 240 829 q 221 804 225 818 q 207 783 217 793 q 190 769 197 772 q 171 737 171 763 q 190 704 171 711 q 207 691 197 701 q 221 669 217 681 q 241 644 228 649 q 304 640 254 640 q 343 641 331 640 q 366 645 356 642 q 380 653 376 649 q 388 669 383 658 q 401 691 392 681 q 417 704 410 701 q 436 737 436 713 q 417 769 436 761 q 401 783 410 772 q 388 804 392 793 m 388 418 q 367 442 381 438 q 304 447 353 447 q 255 445 269 447 q 233 438 240 443 q 221 418 225 432 q 205 397 215 407 q 185 383 194 386 q 159 351 157 376 q 188 314 161 325 q 210 299 200 310 q 222 275 219 288 q 238 251 225 256 q 304 247 250 247 q 371 251 358 247 q 386 275 383 256 q 391 290 388 282 q 401 305 394 299 q 414 314 407 311 q 436 351 435 326 q 417 383 438 375 q 401 397 410 386 q 388 418 392 407 z "},"9":{"ha":606,"x_min":13,"x_max":594,"o":"m 111 989 q 129 1024 111 1018 q 189 1022 147 1029 q 368 1014 257 1014 q 451 1013 429 1014 q 481 1006 472 1011 q 496 986 490 1000 q 509 963 500 974 q 526 950 518 953 q 546 913 546 942 q 569 869 546 882 q 590 815 586 861 q 593 549 593 769 q 590 284 593 329 q 569 229 586 239 q 546 186 546 218 q 526 149 546 157 q 515 142 521 147 q 504 128 510 136 q 496 114 499 121 q 464 88 489 92 q 304 85 439 85 q 126 93 143 85 q 111 114 117 97 q 98 135 107 125 q 82 149 89 146 q 63 181 63 157 q 56 201 63 190 q 38 218 49 213 q 17 242 21 226 q 17 311 14 258 l 19 393 l 86 393 q 131 391 118 393 q 149 383 144 389 q 157 365 154 378 q 179 329 161 336 q 208 294 197 322 q 230 270 215 275 q 303 265 244 265 q 377 270 363 265 q 399 294 392 275 q 431 331 410 322 q 446 389 450 338 l 443 440 l 279 447 q 121 463 135 453 q 113 481 115 469 q 103 503 111 492 q 85 519 94 515 q 63 556 63 533 q 38 592 63 579 q 18 624 22 601 q 14 731 14 646 q 15 815 14 790 q 22 851 17 840 q 38 869 26 863 q 63 912 63 882 q 86 954 63 942 q 111 989 111 967 m 399 811 q 390 831 396 825 q 367 839 383 836 q 310 843 351 842 q 242 843 265 846 q 213 833 219 840 q 207 808 207 826 q 183 774 207 786 q 160 737 160 760 q 182 700 160 714 q 200 685 192 696 q 210 663 208 674 q 229 638 213 642 q 328 635 246 635 l 443 635 l 446 697 q 445 750 449 736 q 426 772 442 764 q 399 811 403 785 z "}," ":{"ha":583,"x_min":0,"x_max":0,"o":""},"!":{"ha":192,"x_min":10,"x_max":182,"o":"m 19 940 q 93 951 24 956 l 164 949 l 174 892 q 179 596 182 838 l 176 357 l 19 357 l 15 640 q 19 940 13 926 m 18 226 q 100 239 24 242 l 176 236 l 176 79 l 19 79 l 15 143 q 18 226 11 208 z "},"\"":{"ha":592,"x_min":11,"x_max":581,"o":"m 142 838 q 218 843 150 847 l 283 839 l 288 764 q 286 697 290 710 q 260 676 282 685 q 238 664 247 672 q 229 649 229 656 q 193 606 229 635 q 151 585 171 589 q 88 582 131 581 l 18 586 l 15 631 q 26 679 13 665 q 107 724 40 693 q 128 743 122 731 q 133 782 133 756 q 142 838 133 829 m 419 838 q 501 843 428 847 l 574 839 l 578 764 q 576 697 581 710 q 550 676 572 685 q 528 663 538 672 q 519 646 519 654 q 499 619 519 629 q 458 596 478 614 q 374 582 438 579 l 308 586 l 304 632 q 322 685 300 676 q 411 785 411 718 q 419 838 411 829 z "},"#":{"ha":840,"x_min":14,"x_max":829,"o":"m 183 710 q 258 722 188 726 l 328 718 l 333 653 q 356 586 339 596 q 443 589 372 576 l 497 597 q 510 718 503 658 l 654 718 q 661 625 657 671 l 733 633 q 808 627 796 639 q 822 551 821 615 l 824 501 l 744 489 q 677 474 688 481 q 667 440 667 467 q 667 439 667 440 q 679 408 667 411 q 768 411 692 404 q 768 413 768 413 q 807 408 800 415 q 822 357 814 401 q 827 306 829 318 q 810 282 825 293 q 756 265 788 265 q 692 254 719 265 q 665 233 671 246 q 657 167 660 219 l 654 90 l 510 90 q 497 224 503 157 l 453 219 q 359 201 379 214 q 333 143 339 188 l 328 90 l 183 90 q 176 172 179 132 l 103 164 q 76 161 85 163 q 57 161 68 160 q 42 163 46 163 q 32 168 38 163 q 25 177 26 174 q 22 193 24 181 q 19 214 19 206 q 18 242 18 222 l 14 296 l 93 308 q 161 324 150 317 q 175 361 172 331 l 178 403 l 104 394 q 32 397 43 388 q 18 471 21 407 l 14 525 q 171 551 93 538 l 175 622 q 183 710 176 688 m 500 415 q 382 436 494 457 q 347 424 354 432 q 340 393 340 417 l 340 357 l 407 360 q 483 376 463 364 q 500 415 504 389 z "},"$":{"ha":763,"x_min":14,"x_max":751,"o":"m 297 1021 q 306 1111 301 1067 l 460 1111 q 467 1021 463 1067 l 538 1017 q 574 1014 561 1015 q 596 1009 586 1013 q 610 1000 606 1006 q 618 985 614 994 q 633 963 622 972 q 657 951 644 954 q 688 921 685 949 q 722 882 692 892 q 747 860 743 874 q 749 782 751 846 l 744 694 l 660 694 q 588 699 600 694 q 572 722 575 703 q 568 734 571 728 q 560 745 565 740 q 550 754 556 750 q 539 761 544 758 q 518 776 528 765 q 507 800 508 788 q 502 813 506 807 q 494 824 499 819 q 485 828 490 828 q 476 824 479 828 q 470 810 472 821 q 467 785 468 800 q 467 743 467 769 l 467 658 l 539 653 q 578 648 564 650 q 600 642 592 646 q 612 632 608 638 q 618 615 615 626 q 654 579 625 588 q 688 546 685 572 q 699 523 690 535 q 722 507 708 511 q 738 499 733 503 q 747 478 743 496 q 750 439 750 461 q 750 363 750 417 q 747 244 750 263 q 721 218 743 225 q 690 181 690 206 q 671 149 690 157 q 642 114 653 142 q 619 90 635 94 q 549 82 604 85 l 467 79 q 454 -67 461 6 l 310 -67 l 297 79 l 233 82 q 192 87 206 83 q 171 96 178 90 q 158 114 164 101 q 144 135 154 125 q 125 147 135 146 q 106 160 114 150 q 96 182 97 171 q 63 218 92 210 q 36 235 40 222 q 32 308 32 249 l 32 393 l 114 396 q 185 395 172 399 q 207 369 199 392 q 246 336 218 340 q 278 304 274 332 q 293 278 282 278 q 301 365 306 278 l 297 453 l 225 458 q 177 465 192 461 q 156 474 163 468 q 147 496 150 481 q 111 529 139 525 q 78 551 83 533 q 43 581 71 569 q 18 608 22 588 q 14 731 14 629 q 18 853 14 832 q 43 882 22 874 q 65 897 56 886 q 76 921 75 908 q 108 951 81 949 q 131 963 119 954 q 147 985 142 972 q 168 1008 154 1003 q 228 1017 182 1014 l 297 1021 m 297 743 q 285 829 297 825 q 264 825 272 835 q 256 794 256 815 q 247 775 256 785 q 225 761 238 765 q 197 737 197 750 q 224 714 196 724 q 247 699 236 710 q 259 676 257 688 q 268 659 261 665 q 282 654 275 653 q 297 743 297 660 m 506 433 q 486 458 500 456 q 465 442 472 461 q 463 349 458 426 q 485 272 467 272 q 498 280 492 272 q 506 299 504 288 q 518 322 508 311 q 540 338 528 333 q 568 368 568 349 q 540 397 568 388 q 519 413 529 401 q 506 433 508 424 z "},"%":{"ha":925,"x_min":14,"x_max":915,"o":"m 99 964 q 222 976 106 979 l 340 972 l 346 931 q 358 895 350 906 q 382 882 365 885 q 408 860 404 876 q 413 754 413 843 q 404 639 413 650 q 382 628 399 632 q 346 586 353 621 l 340 550 l 99 550 l 93 586 q 81 616 89 607 q 50 628 72 625 l 14 635 l 14 875 l 50 882 q 79 893 71 885 q 90 918 88 901 q 99 964 94 950 m 304 658 l 304 864 l 215 867 q 121 854 128 871 q 119 747 115 836 l 122 658 l 304 658 m 608 971 q 685 976 617 981 l 750 972 l 754 853 q 753 749 757 771 q 731 708 749 726 q 628 597 715 693 q 517 478 542 501 q 456 418 488 453 q 400 361 424 383 q 374 328 381 343 q 365 288 368 314 q 358 190 361 263 l 351 54 l 194 54 l 192 185 q 192 299 189 282 q 219 326 196 317 q 250 365 250 338 q 425 571 250 393 l 600 751 l 600 857 q 608 971 600 963 m 582 481 q 704 493 589 496 l 824 489 l 829 447 q 841 413 833 424 q 865 399 849 403 q 885 390 878 396 q 897 371 892 383 q 906 333 901 358 q 911 213 915 267 q 903 160 908 169 q 871 144 897 150 q 849 138 857 143 q 836 126 840 133 q 829 103 832 118 l 824 67 l 582 67 l 575 103 q 565 131 572 122 q 542 143 557 140 q 501 183 513 147 q 493 301 490 219 q 501 382 496 369 q 533 399 506 394 q 556 406 547 401 q 568 417 564 410 q 574 435 572 424 q 582 481 578 468 m 792 369 q 694 387 778 386 q 604 371 611 388 q 601 264 597 353 l 606 175 l 799 175 l 803 264 q 792 369 807 351 z "},"&":{"ha":13,"x_min":0,"x_max":0,"o":""},"(":{"ha":351,"x_min":14,"x_max":342,"o":"m 171 856 q 268 865 201 868 q 306 865 294 865 q 325 858 317 864 q 335 847 333 853 q 338 826 336 842 q 316 772 340 794 q 225 724 292 750 l 176 703 l 174 418 l 171 133 l 197 119 q 307 56 236 104 q 335 28 329 40 q 338 -11 340 15 l 333 -54 l 268 -58 q 185 -44 206 -61 q 147 -19 167 -29 q 47 50 96 4 l 14 81 l 14 783 l 78 813 q 127 835 93 819 q 171 856 161 850 z "},")":{"ha":364,"x_min":13,"x_max":353,"o":"m 22 861 q 93 869 29 869 q 175 858 138 869 q 301 808 213 847 l 351 785 l 351 428 q 343 76 351 104 q 332 64 339 67 q 268 15 311 56 q 213 -24 226 -24 q 183 -42 199 -24 q 93 -58 167 -61 l 19 -54 l 17 -8 q 19 31 14 19 q 40 49 24 42 q 104 85 58 57 q 168 121 150 113 q 192 167 189 129 q 194 417 194 204 l 194 700 l 150 718 q 110 736 126 728 q 75 755 93 744 q 42 774 57 765 q 14 819 14 785 q 22 861 14 854 z "},"*":{"ha":469,"x_min":11,"x_max":460,"o":"m 165 1043 q 242 1049 175 1053 l 308 1044 l 311 990 q 328 913 317 914 q 346 924 335 913 q 410 940 367 943 q 447 931 440 938 q 457 892 454 924 q 453 851 458 865 q 433 825 449 838 q 388 782 407 803 q 340 747 369 758 q 320 726 319 739 q 343 713 321 713 q 383 686 358 713 q 433 636 404 661 q 453 610 449 624 q 457 569 458 596 q 447 532 454 539 q 410 522 440 525 q 346 538 367 518 q 319 536 325 558 l 311 471 l 308 417 l 163 417 l 160 471 q 143 549 156 547 q 126 538 138 549 q 61 522 104 518 q 32 527 40 524 q 20 538 24 531 q 15 565 17 546 q 22 608 13 590 q 64 660 31 625 q 131 713 117 713 q 151 726 149 713 q 136 746 154 739 q 63 804 119 750 q 22 854 31 838 q 15 896 13 871 q 25 931 18 924 q 61 940 32 938 q 125 925 104 943 q 156 938 150 899 q 157 978 157 953 q 165 1043 157 1035 z "},"+":{"ha":594,"x_min":14,"x_max":582,"o":"m 232 782 q 300 794 236 799 l 364 792 l 376 597 l 582 586 l 582 417 l 376 404 q 364 163 371 283 l 232 163 q 219 404 225 283 l 14 417 l 14 586 l 219 597 l 222 682 q 232 782 225 760 z "},",":{"ha":301,"x_min":11,"x_max":292,"o":"m 129 246 q 213 251 139 256 l 285 247 l 288 171 q 287 106 290 118 q 260 85 283 93 q 249 78 254 82 q 239 71 243 75 q 233 63 235 67 q 231 54 231 58 q 181 17 231 33 q 79 3 131 0 q 26 11 33 6 q 15 51 18 17 q 19 92 13 82 q 65 119 26 103 q 113 147 106 138 q 121 190 121 157 q 129 246 121 238 z "},"-":{"ha":611,"x_min":10,"x_max":599,"o":"m 18 443 q 78 456 22 453 q 311 457 135 458 l 599 453 l 599 283 l 19 283 l 15 356 q 18 443 11 425 z "},".":{"ha":189,"x_min":10,"x_max":176,"o":"m 18 214 q 100 226 24 231 l 176 224 l 176 67 l 19 67 l 15 132 q 18 214 11 196 z "},"/":{"ha":579,"x_min":13,"x_max":568,"o":"m 419 983 q 496 988 429 992 l 563 985 l 565 861 q 564 754 567 775 q 544 725 561 733 q 519 698 519 711 q 451 615 519 685 q 378 539 417 581 q 301 463 339 497 q 288 450 296 458 q 240 406 254 418 q 210 372 226 393 q 189 344 193 351 q 179 313 185 336 q 173 274 174 289 q 171 219 172 258 q 169 201 169 208 l 164 67 l 18 67 l 15 196 q 16 308 13 286 q 36 338 19 329 q 49 349 43 342 q 58 363 54 356 q 61 378 61 371 q 135 478 61 404 q 205 547 181 522 q 258 602 229 571 q 331 676 288 633 l 411 758 l 411 867 q 419 983 411 975 z "},":":{"ha":176,"x_min":10,"x_max":164,"o":"m 18 685 q 93 699 24 701 l 164 694 l 164 538 l 19 538 l 15 603 q 18 685 11 667 m 18 214 q 93 226 24 231 l 164 224 l 164 67 l 19 67 l 15 132 q 18 214 11 196 z "},";":{"ha":308,"x_min":11,"x_max":297,"o":"m 150 672 q 226 686 157 689 l 296 682 l 296 525 l 151 525 l 147 590 q 150 672 143 654 m 142 174 q 218 179 150 183 l 283 175 l 288 99 q 286 33 290 46 q 260 13 282 21 q 238 -1 247 8 q 229 -15 229 -10 q 193 -60 229 -29 q 151 -79 171 -75 q 88 -82 131 -83 l 18 -79 l 15 -33 q 26 15 13 0 q 107 60 40 29 q 128 79 122 67 q 133 118 133 92 q 142 174 133 165 z "},"<":{"ha":499,"x_min":14,"x_max":489,"o":"m 213 761 q 371 915 338 888 q 432 940 404 942 q 458 934 450 938 q 469 922 465 931 q 474 893 472 914 q 473 859 476 872 q 458 830 469 846 q 419 785 446 814 q 339 701 363 721 q 231 594 307 674 q 149 503 156 515 q 180 449 143 493 q 314 308 217 406 q 462 153 435 186 q 486 93 489 119 q 481 67 485 74 q 468 56 476 60 q 436 51 460 53 q 386 60 406 49 q 313 124 367 71 q 213 224 260 174 q 103 333 165 274 l 14 421 l 24 500 l 32 579 l 213 761 z "},"=":{"ha":611,"x_min":10,"x_max":599,"o":"m 18 696 q 76 710 22 707 q 311 710 131 713 l 599 707 l 599 610 l 19 610 l 15 643 q 18 696 11 678 m 18 431 q 76 443 22 440 q 311 444 131 446 l 599 440 l 599 344 l 19 344 l 15 378 q 18 431 11 413 z "},">":{"ha":485,"x_min":13,"x_max":474,"o":"m 14 910 q 22 957 14 947 q 65 967 31 967 q 144 918 90 967 q 306 753 199 869 q 399 660 331 724 l 472 588 l 472 504 q 471 450 472 468 q 464 421 469 432 q 447 401 458 410 q 342 299 433 390 q 136 93 235 188 q 99 67 115 74 q 60 63 83 60 q 26 72 32 65 q 17 108 19 79 q 39 172 14 139 q 190 331 64 204 l 367 510 l 236 640 q 111 766 149 728 q 47 836 74 804 q 17 879 21 868 q 14 910 14 890 z "},"?":{"ha":532,"x_min":13,"x_max":521,"o":"m 212 580 q 227 589 212 580 q 242 610 242 597 q 272 640 242 622 q 303 669 303 657 q 325 700 303 688 q 329 721 344 713 q 303 756 314 728 q 266 785 290 785 q 231 754 242 785 q 206 725 219 725 q 182 694 193 725 q 161 668 174 672 q 94 667 149 664 l 19 671 l 15 746 q 16 812 13 799 q 38 829 19 825 q 58 842 47 832 q 75 865 69 853 q 81 879 76 872 q 92 890 86 886 q 103 893 99 893 q 120 902 111 893 q 133 924 129 911 q 142 941 139 936 q 160 949 144 946 q 197 953 176 953 q 267 954 217 954 q 353 952 331 954 q 384 945 375 950 q 400 924 393 940 q 413 902 404 911 q 429 893 421 893 q 447 885 438 893 q 458 865 456 876 q 474 842 463 853 q 494 829 485 832 q 516 807 513 825 q 519 714 519 789 q 515 617 519 635 q 490 592 511 600 q 469 578 478 588 q 460 561 460 569 q 430 531 460 549 q 400 501 400 514 q 381 475 400 483 q 363 462 372 472 q 350 440 354 451 q 338 419 346 428 q 321 411 329 411 q 291 381 308 411 q 261 350 274 350 q 244 342 253 350 q 231 319 235 333 q 210 293 222 297 q 143 292 197 289 l 67 296 l 67 375 q 72 442 67 429 q 94 457 76 454 q 118 467 107 458 q 133 488 129 476 q 163 524 144 517 q 182 550 182 532 q 212 580 182 563 m 67 201 q 149 215 72 218 l 224 211 l 224 54 l 67 54 l 64 119 q 67 201 60 183 z "},"@":{"ha":957,"x_min":14,"x_max":944,"o":"m 74 810 q 103 847 89 838 q 479 857 118 857 q 853 847 842 857 q 906 789 865 840 l 944 738 l 944 517 l 943 296 l 892 238 q 854 199 868 211 q 828 185 840 188 q 797 183 817 182 q 763 194 769 186 q 753 232 756 201 q 757 278 750 261 q 792 321 764 294 l 835 365 l 835 679 q 765 749 800 714 l 485 749 q 182 736 206 749 q 142 691 154 721 q 126 592 131 661 q 122 360 122 524 l 122 68 l 200 -12 l 410 -12 q 598 -8 567 -12 q 657 19 629 -4 q 738 46 693 49 q 775 36 768 43 q 785 -1 782 29 q 781 -44 788 -29 q 749 -83 774 -60 l 708 -121 l 117 -121 q 15 -6 65 -62 l 14 371 q 24 746 14 714 q 36 764 28 757 q 74 810 58 778 m 351 671 q 373 695 360 690 q 431 700 386 700 q 488 695 475 700 q 510 671 501 690 q 525 649 514 658 q 547 638 536 639 q 572 610 568 635 q 579 446 576 586 q 579 444 579 444 q 585 278 581 307 q 610 240 589 250 q 676 139 682 200 q 670 115 674 122 q 659 104 667 107 q 635 99 651 101 q 558 128 597 96 q 506 146 519 160 q 428 133 492 133 q 376 138 392 133 q 351 156 360 142 q 336 174 347 165 q 314 183 325 182 q 290 215 293 186 q 286 411 286 243 l 286 635 l 314 638 q 336 649 325 639 q 351 671 347 658 m 503 211 l 503 622 l 439 625 q 371 614 375 629 q 367 404 364 599 l 371 211 l 503 211 z "},"A":{"ha":757,"x_min":14,"x_max":746,"o":"m 292 1022 q 314 1047 300 1042 q 382 1051 328 1051 q 451 1047 436 1051 q 472 1022 465 1042 q 489 1000 478 1010 q 511 988 500 990 q 545 954 538 985 q 581 921 553 924 q 602 910 592 918 q 615 892 613 901 q 627 872 617 882 q 649 857 638 863 q 669 842 660 853 q 681 819 679 831 q 714 785 685 793 l 744 778 l 744 103 l 575 103 q 564 344 569 224 l 201 344 q 189 103 194 224 l 19 103 l 17 439 l 14 774 l 43 785 q 65 801 56 789 q 76 824 75 813 q 108 856 81 851 q 131 866 119 857 q 147 886 142 875 q 161 908 151 899 q 181 921 171 918 q 200 933 192 924 q 210 956 208 943 q 219 979 211 972 q 247 988 228 986 q 292 1022 281 992 m 436 767 q 426 786 432 781 q 408 794 419 792 q 376 797 397 797 q 335 792 346 797 q 315 767 324 786 q 303 745 311 754 q 286 736 294 736 q 269 728 278 736 q 257 708 260 719 q 242 685 253 696 q 219 672 231 675 q 198 656 201 668 q 197 601 194 644 l 201 538 l 564 538 l 564 604 q 559 660 564 649 q 536 674 554 671 q 513 685 524 676 q 497 708 501 694 q 484 728 493 719 q 467 736 475 736 q 450 745 458 736 q 436 767 442 754 z "},"B":{"ha":760,"x_min":10,"x_max":749,"o":"m 90 1040 q 186 1043 168 1047 q 407 1039 213 1039 l 603 1039 l 615 1010 q 619 999 617 1004 q 626 991 622 994 q 635 984 631 988 q 644 978 639 981 q 654 976 649 976 q 685 944 682 972 q 697 921 688 932 q 719 906 707 910 q 735 898 731 901 q 744 877 740 894 q 747 838 747 860 q 747 761 747 815 q 744 642 747 661 q 718 615 740 624 q 688 580 688 604 q 718 543 688 556 q 745 516 742 535 q 746 396 749 497 q 739 277 743 296 q 711 254 735 258 q 678 214 681 247 q 646 169 674 181 q 624 153 633 164 q 613 131 614 142 l 608 103 l 29 103 l 21 301 q 15 767 10 494 l 17 1032 l 90 1040 m 503 832 q 476 853 499 850 q 350 857 454 857 q 233 853 265 857 q 197 840 201 850 q 194 747 190 825 l 199 671 l 350 671 q 481 674 461 671 q 504 699 501 678 q 515 721 506 710 q 538 736 525 732 q 565 767 565 747 q 538 796 565 786 q 523 805 531 799 q 510 818 515 811 q 503 832 504 825 m 503 464 q 469 479 499 475 q 350 483 440 483 q 197 468 203 483 q 194 367 190 450 l 199 283 l 350 283 q 481 287 461 283 q 504 311 501 290 q 515 335 506 324 q 538 350 525 346 q 568 392 568 363 q 538 433 568 422 q 516 447 526 438 q 503 464 506 457 z "},"C":{"ha":744,"x_min":14,"x_max":733,"o":"m 142 1010 l 153 1039 l 369 1039 q 556 1035 522 1039 q 600 1015 590 1032 q 609 1003 603 1010 q 623 993 615 997 q 639 988 631 989 q 669 957 667 985 q 704 918 674 929 q 729 896 725 910 q 731 825 733 882 l 726 743 l 642 743 q 583 744 599 743 q 562 751 568 746 q 554 771 556 757 q 542 793 551 782 q 522 810 533 804 q 488 839 493 821 q 460 854 482 851 q 368 856 438 857 q 271 848 288 853 q 251 824 254 843 q 240 801 250 813 q 218 785 231 789 l 189 774 l 189 567 q 192 388 189 418 q 214 354 196 358 q 235 341 225 351 q 250 319 246 331 q 275 294 258 299 q 371 290 292 290 q 447 292 426 290 q 476 299 467 293 q 490 319 485 304 q 505 341 494 331 q 525 353 515 351 q 544 365 536 356 q 554 388 551 375 q 569 413 557 408 q 642 417 582 417 l 726 417 l 731 335 q 729 264 733 278 q 704 242 725 250 q 681 226 690 238 q 669 203 671 215 q 636 169 665 176 q 600 133 607 161 l 593 103 l 147 103 l 143 131 q 132 153 142 142 q 110 169 122 164 q 89 185 99 174 q 78 208 79 196 q 44 242 74 235 l 14 249 l 14 899 l 44 906 q 78 940 74 914 q 88 963 79 953 q 107 976 96 974 q 121 982 114 976 q 133 994 128 988 q 142 1010 139 1001 z "},"D":{"ha":756,"x_min":11,"x_max":743,"o":"m 18 1047 q 160 1063 22 1061 q 465 1054 299 1065 q 551 1048 524 1051 q 588 1040 578 1044 q 601 1024 599 1035 q 613 1004 603 1014 q 635 990 624 994 q 656 975 646 986 q 667 951 665 964 q 677 929 668 936 q 707 918 686 922 l 743 913 l 743 247 l 707 242 q 677 231 686 238 q 667 208 668 224 q 656 185 665 196 q 634 169 646 174 q 613 153 622 164 q 601 131 603 142 l 597 103 l 18 103 l 14 568 q 18 1047 13 1036 m 494 840 q 467 865 488 861 q 344 869 446 869 q 197 854 204 869 q 196 568 193 838 l 199 296 l 342 292 q 466 294 446 290 q 494 319 486 297 q 511 342 500 332 q 533 353 522 351 l 561 357 l 561 803 l 533 807 q 511 818 522 808 q 494 840 500 828 z "},"E":{"ha":743,"x_min":11,"x_max":731,"o":"m 18 1049 q 94 1060 21 1057 q 376 1060 168 1063 l 731 1057 l 731 888 q 199 875 465 882 l 199 671 l 597 658 l 597 476 l 199 476 l 199 283 q 731 272 465 278 l 731 103 l 18 103 l 14 568 q 18 1049 13 1035 z "},"F":{"ha":743,"x_min":11,"x_max":731,"o":"m 18 1049 q 94 1060 21 1057 q 376 1060 168 1063 l 731 1057 l 731 888 q 188 875 458 882 l 188 671 q 597 658 393 664 l 597 476 l 188 476 l 188 103 l 18 103 l 14 568 q 18 1049 13 1035 z "},"G":{"ha":764,"x_min":14,"x_max":758,"o":"m 142 1022 l 153 1051 l 600 1051 l 611 1021 q 649 990 624 990 q 681 965 675 990 q 694 944 683 956 q 717 929 706 933 q 735 918 731 924 q 743 894 740 913 q 742 843 746 876 l 739 767 l 657 764 q 600 762 619 760 q 575 769 581 764 q 564 792 569 775 q 550 813 558 804 q 535 821 542 821 q 503 846 517 821 q 474 865 494 861 q 375 869 453 869 q 281 866 306 869 q 253 850 257 863 q 240 834 250 843 q 218 819 229 825 l 189 810 l 189 363 l 218 350 q 240 335 231 346 q 251 311 250 324 q 272 288 254 292 q 376 283 289 283 q 481 288 464 283 q 500 311 497 292 q 535 351 504 339 q 551 359 546 356 q 559 370 556 363 q 562 389 563 378 q 561 419 561 400 l 557 476 l 364 489 l 364 658 l 738 658 l 746 622 q 749 419 757 586 q 738 274 743 299 q 713 242 733 249 q 693 226 703 238 q 682 203 683 214 q 650 171 678 175 q 628 160 639 169 q 611 138 617 150 l 600 108 l 153 108 l 140 139 q 127 160 136 151 q 110 169 118 169 q 94 178 103 169 q 81 199 85 186 q 65 221 76 211 q 42 232 54 231 l 14 236 l 14 911 l 44 918 q 78 953 74 925 q 88 975 79 965 q 107 988 96 985 q 127 1000 117 990 q 142 1022 138 1010 z "},"H":{"ha":756,"x_min":11,"x_max":743,"o":"m 18 1024 q 106 1036 24 1040 l 188 1032 q 199 671 193 851 l 561 671 q 574 1032 568 851 l 743 1032 l 743 103 l 574 103 q 561 476 568 290 l 199 476 q 188 103 193 290 l 18 103 l 14 556 q 18 1024 13 1011 z "},"I":{"ha":768,"x_min":10,"x_max":756,"o":"m 18 1047 q 93 1060 22 1057 q 389 1060 164 1063 l 756 1057 l 756 888 q 490 875 622 882 l 490 283 l 756 272 l 756 103 l 19 103 l 19 272 l 297 283 l 297 875 q 19 888 158 882 l 15 958 q 18 1047 11 1029 z "},"J":{"ha":756,"x_min":13,"x_max":744,"o":"m 283 1047 q 333 1060 288 1057 q 517 1060 379 1063 l 743 1057 l 743 888 q 611 875 678 882 q 599 261 604 568 l 568 254 q 535 219 539 246 q 524 197 533 208 q 503 181 514 186 q 488 172 496 178 q 475 160 481 167 q 468 146 469 153 q 440 124 464 128 q 304 121 417 121 q 164 124 186 121 q 135 150 142 128 q 119 172 131 161 q 99 185 108 182 q 74 217 74 190 q 43 254 74 242 q 17 275 21 261 q 15 347 13 289 l 19 429 l 94 432 q 160 431 147 435 q 182 406 174 426 q 197 383 186 393 q 221 372 208 374 q 254 338 247 368 q 269 314 260 319 q 308 308 278 308 q 349 313 340 308 q 361 336 358 318 q 367 351 363 343 q 379 365 372 360 q 394 375 386 371 l 424 386 l 421 631 l 418 875 q 285 888 351 882 l 281 958 q 283 1047 276 1029 z "},"K":{"ha":743,"x_min":11,"x_max":731,"o":"m 18 1036 q 106 1049 24 1051 l 188 1044 l 190 861 q 206 676 193 676 q 217 700 217 676 q 222 720 217 711 q 235 731 228 729 q 315 768 283 746 q 350 811 346 790 q 383 843 358 839 q 407 854 396 844 q 422 875 418 864 q 438 897 428 886 q 457 908 447 907 q 475 921 467 911 q 485 943 483 931 q 517 976 489 972 q 556 1010 544 979 q 577 1035 564 1032 q 649 1036 590 1039 l 731 1032 l 731 949 q 730 901 731 915 q 726 876 729 888 q 719 863 724 865 q 703 860 714 861 q 694 858 699 860 q 684 852 689 856 q 676 845 679 849 q 669 838 672 842 q 664 829 665 833 q 650 806 660 817 q 631 794 640 796 q 611 782 619 792 q 601 760 603 772 q 569 726 597 731 q 547 716 558 725 q 531 696 536 707 q 517 674 526 683 q 497 663 507 664 q 484 655 490 660 q 474 642 478 650 q 468 626 469 635 q 435 592 465 600 q 404 561 404 585 q 433 533 404 538 q 456 524 446 532 q 468 504 465 515 q 481 485 471 494 q 503 471 490 475 q 523 456 514 467 q 533 432 532 444 q 567 401 538 404 q 588 391 578 399 q 601 372 599 383 q 613 353 603 363 q 635 338 624 343 q 656 322 646 333 q 667 300 665 311 q 700 265 671 274 q 717 260 713 263 q 726 247 722 258 q 730 222 729 236 q 731 175 731 208 l 731 90 l 646 90 q 574 94 586 90 q 556 121 561 99 q 521 154 547 151 q 498 165 508 157 q 485 183 488 172 q 479 197 485 190 q 467 209 474 204 q 451 218 460 214 q 431 233 440 222 q 419 256 422 244 q 389 288 417 283 q 373 294 381 289 q 359 305 365 299 q 350 319 353 311 q 335 341 346 331 q 315 354 325 351 q 290 385 290 360 q 288 402 290 396 q 279 413 286 408 q 263 420 272 418 q 235 425 253 422 q 214 406 218 428 q 206 272 210 383 l 199 115 l 18 115 l 14 568 q 18 1036 13 1022 z "},"L":{"ha":767,"x_min":11,"x_max":756,"o":"m 18 1036 q 106 1049 24 1051 l 188 1044 q 199 296 193 671 q 754 283 476 290 l 754 115 l 453 108 q 85 108 150 101 l 18 115 l 14 568 q 18 1036 13 1022 z "},"M":{"ha":767,"x_min":11,"x_max":756,"o":"m 18 1036 q 111 1049 24 1051 l 199 1044 l 206 985 q 215 934 208 946 q 242 918 222 922 q 275 883 272 910 q 285 860 276 871 q 304 847 293 850 q 324 836 314 846 q 339 814 335 826 q 386 783 350 783 q 433 814 422 783 q 448 836 438 826 q 469 849 458 846 q 497 894 494 854 q 506 928 499 918 q 531 942 513 938 q 557 958 550 947 q 568 996 564 968 l 574 1044 l 754 1044 l 754 103 l 574 103 l 569 378 q 556 653 568 653 q 543 635 543 653 q 539 623 543 629 q 528 612 535 617 q 514 604 522 607 q 495 593 501 600 q 485 574 489 586 q 481 542 482 563 l 476 489 l 296 489 l 292 542 q 283 585 289 574 q 258 604 276 597 q 238 617 246 608 q 229 635 229 626 q 217 653 229 653 q 203 378 204 653 l 199 103 l 18 103 l 14 561 q 18 1036 13 1022 z "},"N":{"ha":743,"x_min":11,"x_max":731,"o":"m 18 1049 q 106 1060 24 1064 l 188 1057 l 193 1003 q 203 958 197 969 q 229 942 210 947 q 263 908 260 935 q 274 885 265 896 q 295 869 283 874 q 317 854 307 865 q 328 831 326 843 q 360 800 332 803 q 383 788 371 797 q 399 768 394 779 q 413 747 403 757 q 433 733 424 736 q 458 701 458 728 q 469 674 458 682 q 513 663 479 667 q 533 678 529 660 q 543 857 539 704 l 550 1057 l 731 1057 l 731 103 l 550 103 l 546 222 q 540 322 544 301 q 518 347 535 343 q 498 360 508 350 q 483 382 488 369 q 476 392 481 388 q 467 401 472 397 q 456 409 463 406 q 444 413 450 413 q 413 444 417 417 q 407 460 411 453 q 395 474 403 468 q 381 483 388 481 q 359 499 368 488 q 347 522 350 510 q 315 553 344 550 q 293 563 303 556 q 281 582 283 571 q 268 602 278 592 q 246 617 258 613 q 217 653 217 628 q 206 676 217 676 q 190 390 193 676 l 188 103 l 18 103 l 14 568 q 18 1049 13 1035 z "},"O":{"ha":757,"x_min":14,"x_max":746,"o":"m 111 978 q 126 981 119 978 q 138 991 133 985 q 144 1003 142 997 q 149 1018 146 1008 q 153 1032 151 1028 q 383 1053 160 1053 q 614 1032 606 1053 q 649 1003 621 1014 q 660 996 654 1000 q 669 987 665 992 q 676 976 674 982 q 681 964 679 969 q 714 931 685 938 l 744 922 l 744 236 l 715 232 q 694 222 704 231 q 681 203 683 214 q 669 183 679 193 q 647 169 658 174 q 633 160 639 167 q 622 146 626 154 q 615 131 617 138 l 611 103 l 154 103 l 147 133 q 111 167 139 163 q 90 176 100 168 q 76 196 79 185 q 65 216 75 206 q 43 231 54 226 l 14 242 l 14 575 q 17 866 14 822 q 39 914 21 910 q 60 927 50 917 q 75 949 71 938 q 111 978 85 978 m 508 840 q 483 865 500 861 q 385 869 465 869 q 264 861 271 869 q 256 831 256 854 q 247 811 256 821 q 225 797 238 801 l 194 785 l 194 363 l 224 350 q 246 335 236 346 q 258 311 256 324 q 276 288 261 292 q 382 283 296 283 q 500 293 489 283 q 507 311 504 297 q 518 335 508 324 q 540 350 528 346 l 569 363 l 569 581 q 566 770 569 739 q 544 806 563 801 q 523 819 533 808 q 508 840 513 829 z "},"P":{"ha":738,"x_min":11,"x_max":725,"o":"m 18 1024 q 81 1035 21 1033 q 310 1036 142 1038 l 597 1032 l 601 1004 q 613 982 603 993 q 635 967 622 971 q 656 953 647 961 q 664 936 664 944 q 668 925 664 931 q 679 914 672 919 q 694 906 686 908 q 712 898 707 901 q 720 878 717 894 q 724 840 724 861 q 725 767 725 819 q 723 676 725 700 q 715 643 721 653 q 694 628 710 633 q 664 592 664 615 q 635 557 664 567 q 613 542 624 553 q 600 521 603 531 q 593 507 597 511 q 566 499 589 503 q 508 494 543 496 q 397 493 472 493 l 199 489 q 188 115 193 301 l 18 115 l 14 561 q 18 1024 13 1011 m 493 824 q 470 848 490 843 q 346 856 450 853 q 213 849 231 858 q 193 789 192 839 q 196 754 194 783 l 199 682 l 342 679 q 466 679 444 676 q 492 700 488 682 q 499 715 493 707 q 511 728 504 722 q 526 738 518 735 q 554 761 554 749 q 526 785 554 774 q 504 801 514 789 q 493 824 494 813 z "},"Q":{"ha":743,"x_min":14,"x_max":735,"o":"m 149 1042 q 372 1051 156 1051 l 588 1051 l 600 1021 q 613 999 604 1008 q 630 990 622 990 q 647 982 638 990 q 660 961 656 974 q 669 946 663 953 q 683 934 675 939 q 699 928 690 929 l 726 924 l 731 624 q 720 309 732 321 q 722 282 708 297 q 731 185 735 265 l 726 103 l 642 103 q 570 107 585 103 q 551 131 556 111 q 533 157 544 157 q 515 131 521 157 q 496 108 510 113 q 328 103 475 103 q 169 106 193 103 q 143 131 146 110 q 132 153 142 142 q 110 169 122 164 q 89 185 99 174 q 78 208 79 196 q 44 242 74 235 l 14 249 l 14 899 l 44 906 q 78 940 74 914 q 89 963 79 951 q 111 978 99 974 q 132 993 124 983 q 140 1013 140 1003 q 149 1042 140 1036 m 488 838 q 460 853 483 850 q 371 857 436 857 q 275 853 292 857 q 250 829 258 849 q 242 813 247 821 q 228 801 236 806 q 214 793 221 796 q 192 758 196 789 q 189 575 189 728 q 192 387 189 415 q 218 351 196 358 q 240 336 229 347 q 253 314 250 325 q 261 298 256 303 q 278 292 267 293 q 313 292 290 290 q 347 297 336 294 q 360 306 357 300 q 364 326 364 313 q 333 363 364 356 q 308 381 313 368 q 304 453 304 393 l 304 538 l 386 542 q 457 540 443 544 q 478 515 471 536 q 510 482 486 494 q 544 481 533 469 q 551 643 551 488 q 548 779 551 757 q 522 808 544 801 q 501 822 511 813 q 488 838 490 831 z "},"R":{"ha":781,"x_min":14,"x_max":769,"o":"m 86 1040 q 183 1043 164 1047 q 417 1039 210 1039 l 624 1039 l 636 1008 q 674 978 647 978 q 704 953 699 978 q 717 932 707 943 q 740 917 728 921 q 756 909 751 913 q 765 889 761 906 q 768 850 768 872 q 768 773 768 828 q 768 696 768 718 q 765 657 768 674 q 756 637 761 640 q 740 629 751 633 q 717 614 728 625 q 704 593 707 603 q 674 568 699 568 q 636 538 647 568 q 617 513 629 518 q 564 507 604 507 q 503 492 499 507 q 526 479 504 485 q 538 473 532 478 q 549 460 544 468 q 554 446 553 453 q 585 413 557 417 q 608 402 597 411 q 624 382 619 393 q 632 367 626 374 q 644 354 638 360 q 657 347 651 349 q 676 335 668 346 q 686 313 685 325 q 721 278 690 285 q 746 260 742 272 q 750 193 750 247 l 750 115 l 668 111 q 597 113 610 108 q 575 139 583 117 q 539 169 564 169 q 504 199 514 169 q 490 220 500 210 q 469 232 479 231 q 450 245 458 235 q 440 267 442 256 q 407 300 436 296 q 385 310 396 301 q 372 329 375 318 q 361 349 371 339 q 339 363 351 358 q 319 378 328 367 q 307 401 310 389 q 274 435 304 428 q 238 471 244 443 q 228 492 235 483 q 213 501 221 501 q 198 465 203 501 q 189 314 193 428 l 183 126 l 14 126 l 14 1032 l 86 1040 m 525 836 q 507 858 522 854 q 361 867 488 864 q 232 867 265 869 q 194 854 199 864 q 192 760 188 836 l 194 682 l 358 682 q 501 685 479 682 q 525 710 522 689 q 536 733 526 722 q 558 749 546 744 q 586 773 586 760 q 558 797 586 786 q 536 813 546 801 q 525 836 526 824 z "},"S":{"ha":757,"x_min":14,"x_max":746,"o":"m 142 1010 l 153 1039 l 383 1039 q 583 1035 550 1039 q 621 1014 615 1032 q 633 992 624 1003 q 656 976 643 982 q 685 942 685 968 q 714 906 685 918 q 741 884 738 897 q 742 813 744 871 l 739 731 l 663 726 q 597 728 610 725 q 575 754 583 732 q 560 776 571 767 q 538 788 549 786 q 503 821 511 792 q 481 848 497 844 q 376 851 465 851 q 272 847 289 851 q 251 824 254 843 q 240 801 250 813 q 218 785 231 789 q 190 760 192 774 q 214 740 189 747 q 235 727 225 738 q 250 706 246 717 q 283 681 257 685 q 439 674 310 676 q 613 663 597 671 q 621 643 619 656 q 627 627 622 635 q 640 613 632 619 q 656 604 647 607 q 685 568 685 592 q 714 532 685 543 q 741 505 738 524 q 744 387 744 486 q 741 269 744 288 q 714 242 738 250 q 685 206 685 229 q 665 172 685 182 q 648 159 657 169 q 635 138 639 149 l 624 108 l 176 108 l 165 138 q 149 160 160 150 q 126 171 138 169 q 94 203 99 175 q 61 242 90 231 q 35 264 39 250 q 35 335 32 278 l 38 417 l 121 421 q 190 419 176 424 q 213 394 204 415 q 227 372 217 383 q 247 360 238 361 q 266 347 258 357 q 276 325 274 338 q 294 300 279 304 q 389 296 310 296 q 464 298 444 296 q 491 305 483 300 q 503 326 499 310 q 539 363 511 354 q 562 374 554 365 q 570 393 569 383 q 563 410 571 403 q 542 421 556 418 q 519 432 531 422 q 503 453 507 442 q 479 476 496 472 q 319 486 458 482 q 153 497 167 489 q 143 518 144 504 q 140 530 142 524 q 133 540 138 536 q 124 548 129 544 q 114 553 119 551 q 94 565 104 556 q 81 588 85 575 q 72 601 78 594 q 58 613 65 608 q 42 618 50 617 q 18 640 22 621 q 14 761 14 660 q 17 882 14 864 q 44 906 21 900 q 78 940 74 914 q 88 963 79 953 q 107 976 96 974 q 127 988 117 978 q 142 1010 138 997 z "},"T":{"ha":744,"x_min":10,"x_max":732,"o":"m 18 1047 q 91 1060 22 1057 q 378 1060 160 1063 l 732 1057 l 732 888 q 478 875 604 882 q 465 126 472 501 l 297 126 q 285 875 290 501 q 19 888 151 882 l 15 958 q 18 1047 11 1029 z "},"U":{"ha":767,"x_min":11,"x_max":756,"o":"m 18 1024 q 106 1036 24 1040 l 188 1032 q 199 346 193 689 l 229 338 q 265 301 258 331 q 288 276 271 281 q 386 272 304 272 q 467 274 446 272 q 495 281 488 275 q 507 301 503 286 q 543 338 515 331 l 574 346 l 574 1032 l 754 1032 l 754 224 l 725 219 q 703 210 714 218 q 690 190 693 201 q 679 171 689 181 q 657 157 669 161 q 637 142 646 153 q 625 118 628 131 l 622 90 l 151 90 l 147 118 q 136 142 146 131 q 115 157 126 153 q 94 171 104 161 q 82 190 83 181 q 69 210 79 201 q 47 219 58 218 l 18 224 l 14 615 q 18 1024 13 1011 z "},"V":{"ha":767,"x_min":11,"x_max":756,"o":"m 18 1013 q 111 1024 24 1028 l 199 1021 q 211 478 206 750 l 242 471 q 278 435 269 464 q 311 401 285 404 q 327 395 319 400 q 341 383 335 390 q 350 367 347 375 q 392 338 363 338 q 435 367 422 338 q 450 389 439 379 q 474 401 461 399 q 504 432 501 404 q 517 456 507 444 q 539 471 526 467 l 568 482 l 569 751 l 574 1021 l 754 1021 l 754 357 l 726 353 q 712 347 719 351 q 698 335 704 342 q 689 319 692 328 q 675 299 683 307 q 658 290 667 290 q 641 281 650 290 q 628 261 632 272 q 621 249 625 254 q 612 239 617 243 q 601 231 607 235 q 589 226 594 228 q 555 193 563 224 q 522 160 547 163 q 499 148 510 157 q 483 125 488 139 q 470 106 478 111 q 447 99 463 100 q 392 97 431 97 q 338 99 354 97 q 315 106 322 100 q 301 125 307 111 q 286 148 297 139 q 263 160 275 157 q 230 193 238 163 q 196 226 222 224 q 172 239 183 229 q 157 261 161 249 q 121 290 146 290 q 85 319 96 290 q 69 342 81 332 q 46 353 57 351 l 18 357 l 14 676 q 18 1013 13 999 z "},"W":{"ha":792,"x_min":11,"x_max":779,"o":"m 18 1024 q 106 1036 24 1040 l 188 1032 l 199 332 l 296 332 q 308 718 301 525 l 476 718 q 489 332 483 525 l 597 332 l 610 1032 l 779 1032 l 779 225 l 749 218 q 715 183 718 210 q 711 172 714 178 q 703 160 708 165 q 693 151 699 156 q 682 144 688 147 q 667 135 675 142 q 656 122 660 129 q 650 107 651 114 q 646 91 649 96 q 633 83 643 86 q 608 79 622 79 q 561 79 594 79 q 489 83 501 79 q 474 107 476 86 q 461 129 471 118 q 439 144 451 140 q 419 158 428 150 q 411 175 411 167 q 399 193 411 193 q 390 188 394 193 q 386 175 386 182 q 378 158 386 167 q 357 144 369 150 q 335 129 344 140 q 324 107 325 118 q 308 83 321 86 q 235 79 294 79 q 177 81 193 79 q 155 87 161 82 q 147 107 149 92 q 136 129 146 118 q 115 145 126 140 q 93 161 103 150 q 82 183 83 172 q 49 218 78 210 l 18 225 l 14 615 q 18 1024 13 1011 z "},"X":{"ha":743,"x_min":11,"x_max":731,"o":"m 17 1011 q 111 1024 24 1028 l 199 1021 l 203 939 q 207 883 204 899 q 215 858 210 867 q 235 846 221 850 q 250 838 243 843 q 261 826 257 832 q 265 815 265 821 q 274 798 265 807 q 296 785 283 789 q 326 749 326 774 q 335 730 326 735 q 367 725 343 725 q 401 730 393 725 q 413 753 410 735 q 444 782 417 779 q 467 794 456 785 q 483 814 478 803 q 513 849 494 843 q 533 939 531 856 l 538 1021 l 707 1021 l 710 885 q 709 768 713 790 q 689 736 706 746 q 671 721 678 732 q 664 699 664 710 q 656 679 664 689 q 635 665 647 669 q 613 651 624 661 q 601 631 603 640 q 588 611 599 619 q 567 601 578 603 q 535 568 535 597 q 568 532 536 539 q 601 496 597 524 q 611 474 603 485 q 631 461 619 464 q 650 450 640 460 q 664 428 660 440 q 680 407 668 417 q 703 396 692 397 q 726 379 722 393 q 731 242 731 361 l 731 90 l 561 90 l 556 181 q 546 259 551 244 q 519 278 540 274 q 483 314 490 285 q 449 347 475 344 q 434 353 442 349 q 420 366 426 358 q 411 382 414 374 q 368 411 399 411 q 328 382 338 411 q 312 360 322 369 q 290 347 301 350 q 265 315 265 340 q 235 278 265 289 q 210 256 215 271 q 203 179 206 240 l 199 90 l 18 90 l 18 247 q 22 385 18 364 q 46 408 25 406 q 81 431 75 413 q 115 458 88 447 q 136 475 126 464 q 147 497 146 486 q 181 532 151 524 q 213 568 213 539 q 182 601 214 597 q 160 611 171 603 q 147 631 150 619 q 135 650 146 640 q 114 664 125 660 q 93 681 103 669 q 82 703 83 692 q 49 736 78 729 q 22 757 26 742 q 14 869 17 775 q 17 1011 13 994 z "},"Y":{"ha":756,"x_min":11,"x_max":743,"o":"m 18 1011 q 106 1024 24 1028 l 188 1021 l 190 908 q 198 811 193 829 q 224 785 203 793 q 244 769 235 781 q 256 746 254 758 q 288 715 260 718 q 310 703 299 713 q 326 681 321 694 q 344 658 333 664 q 381 653 356 653 q 416 658 406 653 q 433 681 426 664 q 448 703 438 693 q 468 715 458 713 q 481 722 475 717 q 492 735 488 728 q 497 750 496 742 q 531 785 501 778 q 549 790 543 788 q 558 808 554 793 q 564 841 563 822 q 568 906 565 860 l 574 1021 l 743 1021 l 743 846 q 739 692 743 714 q 714 667 735 669 q 692 657 701 665 q 679 638 682 649 q 674 628 678 633 q 667 617 671 622 q 656 609 663 613 q 644 603 650 606 q 615 568 615 593 q 586 532 615 543 q 564 515 574 526 q 553 493 554 504 q 542 470 551 478 q 513 458 533 463 l 476 453 q 465 79 471 265 l 296 79 q 283 453 290 265 l 247 458 q 219 470 228 463 q 207 493 210 478 q 202 508 207 500 q 190 522 197 517 q 174 532 182 528 q 144 569 144 543 q 119 600 144 594 q 106 607 113 601 q 93 620 99 613 q 85 635 88 628 q 68 656 79 646 q 46 667 57 665 q 21 691 25 669 q 14 831 17 713 q 14 832 14 832 q 18 1011 13 997 z "},"Z":{"ha":760,"x_min":10,"x_max":753,"o":"m 678 743 q 647 713 678 729 q 617 682 617 696 q 608 665 617 674 q 586 653 599 657 q 557 616 557 640 q 526 579 557 592 q 511 572 518 576 q 500 561 504 567 q 496 550 496 556 q 488 533 496 542 q 465 519 479 524 q 436 483 436 507 q 406 447 436 458 q 384 433 393 442 q 375 417 375 425 q 367 400 375 408 q 346 386 358 392 q 313 336 315 375 q 304 303 311 313 q 282 292 297 294 q 254 278 254 288 q 493 264 254 265 l 732 260 l 732 90 l 19 90 l 15 208 q 14 291 11 264 q 22 325 17 318 q 43 338 26 332 q 65 351 56 343 q 74 368 74 360 q 78 380 74 374 q 89 391 82 386 q 104 399 96 396 q 133 435 133 411 q 163 471 133 460 q 196 522 193 483 q 206 555 199 546 q 229 565 213 564 q 244 571 238 567 q 257 581 251 575 q 264 594 263 588 q 270 608 265 600 q 283 621 275 615 q 299 629 290 626 q 326 664 326 639 q 357 700 326 689 q 378 714 369 706 q 388 731 388 722 q 396 748 388 739 q 417 761 404 757 q 439 774 431 765 q 447 792 447 783 q 454 808 447 800 q 472 818 461 815 q 449 842 533 833 q 258 847 390 846 l 19 851 l 15 922 q 18 1011 11 993 q 91 1024 22 1021 q 378 1024 160 1026 l 732 1021 l 743 969 q 743 851 753 922 q 732 794 739 810 q 706 774 725 779 q 686 760 694 768 q 678 743 678 751 z "},"[":{"ha":13,"x_min":0,"x_max":0,"o":""},"]":{"ha":13,"x_min":0,"x_max":0,"o":""},"a":{"ha":533,"x_min":14,"x_max":522,"o":"m 121 721 q 155 733 126 731 q 264 735 183 736 l 400 731 q 413 622 407 676 q 521 610 467 615 l 521 103 l 122 103 l 117 157 q 110 196 114 186 q 97 210 106 206 q 63 218 88 214 l 14 224 l 14 393 l 63 399 q 105 411 97 403 q 117 458 113 419 l 122 514 l 238 519 q 294 523 272 521 q 329 528 315 525 q 347 534 343 531 q 351 543 351 538 q 328 559 351 554 q 238 568 306 564 l 122 574 l 119 639 q 121 721 114 703 m 351 272 l 351 344 l 264 347 q 178 340 196 350 q 167 293 160 331 q 187 276 169 279 q 261 272 204 272 l 351 272 z "},"b":{"ha":635,"x_min":11,"x_max":622,"o":"m 18 903 q 111 915 24 919 l 199 913 q 211 707 206 810 l 489 694 q 501 586 494 640 q 622 574 561 579 l 622 224 q 501 211 561 218 q 489 103 494 157 l 18 103 l 14 496 q 18 903 13 890 m 440 272 l 440 525 l 328 529 q 238 528 263 531 q 210 515 214 525 q 207 385 206 500 l 211 272 l 440 272 z "},"c":{"ha":550,"x_min":11,"x_max":538,"o":"m 175 710 q 217 722 178 719 q 358 722 256 724 l 538 718 l 538 561 q 224 550 381 556 l 224 272 q 538 260 381 265 l 538 103 l 175 103 q 163 211 168 157 l 18 224 l 14 390 q 24 579 13 557 q 100 607 38 603 q 137 609 128 608 q 154 615 146 610 q 164 627 163 621 q 167 653 165 633 q 175 710 168 688 z "},"d":{"ha":631,"x_min":14,"x_max":618,"o":"m 449 879 q 536 892 454 894 l 618 888 l 618 103 l 549 97 q 319 97 481 90 l 158 103 q 147 199 153 151 l 14 211 l 14 561 q 147 574 81 568 l 158 671 q 436 682 297 676 l 440 774 q 449 879 442 857 m 436 260 l 436 514 l 325 517 q 210 511 215 519 q 200 381 204 504 l 194 260 l 436 260 z "},"e":{"ha":533,"x_min":14,"x_max":522,"o":"m 135 710 q 276 722 142 725 l 413 718 l 418 664 q 431 617 424 625 q 472 604 438 608 l 521 597 l 521 308 l 351 301 q 267 298 299 300 q 215 293 235 296 q 190 287 196 290 q 183 278 183 283 q 216 262 183 267 q 351 254 249 257 l 521 247 l 521 90 l 135 90 q 122 199 129 144 q 14 211 68 206 l 14 597 l 68 604 q 115 615 107 608 q 126 653 124 622 q 135 710 128 688 m 351 493 q 358 495 351 493 q 364 519 364 497 q 351 546 364 542 q 276 553 339 550 q 189 545 208 556 q 182 501 169 535 q 204 486 186 489 q 276 486 222 483 q 351 493 339 489 z "},"f":{"ha":631,"x_min":14,"x_max":618,"o":"m 292 1036 q 331 1048 296 1046 q 457 1049 365 1050 l 618 1044 l 618 875 l 340 864 l 340 779 l 618 767 l 618 597 l 340 586 q 328 115 333 350 l 158 115 l 151 342 q 133 579 143 571 q 68 594 124 590 l 14 597 l 14 767 l 135 779 l 147 913 q 279 924 213 918 l 283 972 q 292 1036 285 1013 z "},"g":{"ha":582,"x_min":14,"x_max":569,"o":"m 135 758 q 184 770 139 768 q 354 771 229 772 l 569 767 l 569 103 l 449 90 l 436 -42 l 14 -42 l 14 139 l 389 151 l 389 236 l 147 247 q 135 381 140 314 q 14 393 74 386 l 14 635 l 68 640 q 116 652 108 644 q 126 694 124 660 q 135 758 128 735 m 389 440 l 389 586 l 288 589 q 258 590 268 590 q 233 590 247 590 q 213 589 219 589 q 199 585 207 589 q 189 581 192 582 q 183 572 186 579 q 178 560 179 565 q 177 544 178 556 q 177 525 176 533 q 179 500 178 517 l 183 440 l 389 440 z "},"h":{"ha":635,"x_min":11,"x_max":622,"o":"m 18 1024 q 106 1036 24 1040 l 188 1032 l 199 767 q 489 754 344 761 l 501 622 q 622 610 561 615 l 622 90 l 453 90 q 440 561 447 326 l 326 569 q 201 571 208 576 q 194 328 192 565 l 199 90 l 18 90 l 14 550 q 18 1024 13 1011 z "},"i":{"ha":236,"x_min":10,"x_max":225,"o":"m 18 1024 q 43 1035 21 1033 q 124 1036 65 1038 l 224 1032 l 224 864 l 19 864 l 15 935 q 18 1024 11 1004 m 26 746 q 132 758 40 761 l 224 754 l 224 90 l 19 90 l 15 410 q 26 746 13 725 z "},"j":{"ha":558,"x_min":14,"x_max":546,"o":"m 351 1024 q 376 1035 354 1033 q 451 1036 397 1038 l 546 1032 l 546 864 l 351 864 l 349 935 q 351 1024 344 1004 m 343 740 q 446 746 346 751 l 546 743 l 546 67 l 389 54 q 376 -67 382 -6 l 14 -67 l 14 103 q 340 115 176 108 l 340 422 q 343 740 340 733 z "},"k":{"ha":707,"x_min":11,"x_max":694,"o":"m 18 1013 q 117 1024 24 1028 l 211 1021 l 224 538 l 344 538 l 356 658 l 501 671 l 513 803 l 694 803 l 694 622 l 561 610 l 550 489 l 471 483 q 433 479 443 481 q 410 476 422 478 q 397 469 399 475 q 393 459 394 464 q 392 440 392 454 q 401 408 392 414 q 465 399 411 403 l 538 393 q 550 272 543 332 q 694 260 622 265 l 694 90 l 513 90 q 501 211 507 151 l 344 224 q 332 344 338 283 l 224 344 q 211 90 217 218 l 18 90 l 14 543 q 18 1013 13 999 z "},"l":{"ha":211,"x_min":11,"x_max":200,"o":"m 18 1024 q 111 1036 24 1040 l 199 1032 l 199 79 l 18 79 l 14 543 q 18 1024 13 1011 z "},"m":{"ha":622,"x_min":11,"x_max":611,"o":"m 18 746 q 147 758 24 761 l 272 754 l 278 700 q 288 655 281 664 q 314 646 294 646 q 340 655 333 646 q 350 700 346 664 l 356 754 l 501 754 l 507 700 q 511 669 510 678 q 519 653 513 660 q 534 644 526 646 q 561 640 542 643 l 610 635 l 610 90 l 465 90 l 458 338 q 450 551 454 517 q 429 586 446 586 q 408 567 413 586 q 399 435 403 546 l 393 283 l 235 283 l 229 435 q 221 564 225 542 q 199 586 217 586 q 178 551 182 586 q 169 338 174 517 l 163 90 l 18 90 l 14 411 q 18 746 13 733 z "},"n":{"ha":586,"x_min":11,"x_max":574,"o":"m 18 746 q 67 758 21 756 q 238 758 113 760 l 453 754 q 465 646 458 700 q 574 635 519 640 l 574 79 l 417 79 q 404 586 411 332 l 188 586 q 175 79 181 332 l 18 79 l 14 404 q 18 746 13 731 z "},"o":{"ha":594,"x_min":14,"x_max":582,"o":"m 147 735 q 300 746 154 750 l 449 743 q 461 622 454 682 q 582 610 521 615 l 582 211 q 461 199 521 206 q 449 90 454 144 l 147 90 q 135 199 140 144 l 14 211 l 14 610 l 135 622 l 139 671 q 147 735 140 711 m 400 260 l 400 561 l 301 565 q 197 560 201 568 q 188 404 190 549 l 183 260 l 400 260 z "},"p":{"ha":550,"x_min":11,"x_max":538,"o":"m 18 710 q 65 722 21 719 q 225 722 108 724 l 429 718 l 435 664 q 447 617 439 625 q 489 604 454 608 l 538 597 l 538 224 l 489 218 q 447 205 454 213 q 435 157 439 197 l 429 103 q 188 90 308 97 l 175 -18 l 18 -18 l 14 338 q 18 710 13 697 m 381 272 l 381 550 l 286 553 q 186 540 193 557 q 183 397 181 524 l 188 272 l 381 272 z "},"q":{"ha":522,"x_min":14,"x_max":510,"o":"m 122 699 q 167 710 126 707 q 318 710 208 713 l 510 707 l 510 -6 l 364 -6 q 351 90 358 42 l 122 103 l 117 157 q 105 205 113 197 q 63 218 97 213 l 14 224 l 14 586 l 63 592 q 95 599 86 594 q 108 611 104 603 q 114 640 113 619 q 122 699 115 675 m 351 272 l 351 538 l 264 542 q 169 528 176 544 q 167 392 165 511 l 171 272 l 351 272 z "},"r":{"ha":646,"x_min":11,"x_max":635,"o":"m 18 758 q 111 771 24 774 l 199 767 l 206 707 q 212 665 208 675 q 222 650 215 654 q 247 646 228 646 q 279 654 274 646 q 290 707 285 663 l 296 767 l 399 771 q 568 764 506 772 l 633 754 l 633 597 l 344 586 q 332 476 338 532 q 211 465 272 471 q 199 126 206 296 l 18 126 l 14 435 q 18 758 13 744 z "},"s":{"ha":631,"x_min":14,"x_max":618,"o":"m 158 710 q 210 722 163 719 q 390 722 258 724 l 618 718 l 618 561 l 413 556 q 242 547 276 551 q 204 528 207 543 q 223 500 199 507 q 358 486 247 493 l 485 476 l 490 429 q 504 386 496 393 q 557 375 513 379 l 618 368 l 618 211 l 557 206 q 504 194 513 201 q 490 151 496 188 l 485 103 l 14 103 l 14 260 l 225 265 q 406 275 376 271 q 436 296 436 279 q 416 317 436 313 q 297 326 396 321 l 158 332 q 147 440 153 386 q 14 453 81 447 l 14 597 l 81 604 q 139 615 131 608 q 150 653 147 621 q 158 710 153 688 z "},"t":{"ha":563,"x_min":14,"x_max":553,"o":"m 147 722 q 222 735 151 738 l 292 731 q 304 525 297 628 l 533 514 l 533 368 q 304 357 418 363 l 304 103 q 546 90 425 97 l 549 14 q 538 -67 553 -61 q 389 -62 519 -74 l 256 -54 l 250 -6 q 237 36 244 28 q 194 49 229 44 l 147 54 l 135 357 q 14 368 74 363 l 14 514 l 135 525 l 139 615 q 147 722 140 700 z "},"u":{"ha":650,"x_min":11,"x_max":640,"o":"m 18 686 q 111 699 24 701 l 199 694 q 211 260 206 476 l 440 260 q 453 694 447 476 l 622 694 l 632 628 q 638 332 640 567 l 633 103 l 558 97 q 322 97 481 90 l 163 103 q 151 199 157 151 l 18 211 l 14 440 q 18 686 13 671 z "},"v":{"ha":646,"x_min":11,"x_max":635,"o":"m 18 722 q 99 735 24 738 l 175 731 l 188 393 l 235 386 q 278 374 271 382 q 290 326 285 365 q 299 283 293 293 q 319 272 306 272 q 335 276 331 272 q 344 292 340 281 q 350 326 347 303 l 356 381 q 465 393 411 386 l 476 731 l 633 731 l 633 344 q 525 332 579 338 l 513 224 l 404 211 q 392 103 399 157 l 247 103 l 242 157 q 230 205 238 197 q 187 217 222 213 q 144 230 151 222 q 133 278 138 238 l 126 332 q 18 344 72 338 l 14 525 q 18 722 13 707 z "},"w":{"ha":635,"x_min":11,"x_max":622,"o":"m 18 686 q 99 699 24 701 l 175 694 l 181 476 q 190 290 186 321 q 211 260 194 260 q 233 283 228 260 q 242 422 238 307 l 247 586 l 392 586 l 399 422 q 407 283 403 307 q 429 260 411 260 q 449 279 443 260 q 458 476 454 304 l 465 694 l 622 694 l 622 211 l 574 206 q 531 193 539 201 q 519 151 524 185 l 513 103 l 356 103 l 350 151 q 340 190 346 181 q 320 199 335 199 q 299 190 306 199 q 290 151 293 181 l 283 103 l 139 103 l 133 151 q 120 194 128 186 q 72 206 113 201 l 18 211 l 14 440 q 18 686 13 671 z "},"x":{"ha":647,"x_min":10,"x_max":635,"o":"m 18 708 q 93 722 24 725 l 164 718 q 176 610 169 664 q 285 597 231 604 l 290 543 q 301 498 294 507 q 327 489 307 489 q 353 498 347 489 q 363 543 360 507 q 375 592 368 583 q 417 604 382 600 q 445 608 438 607 q 460 617 453 610 q 468 633 467 624 q 472 664 469 642 l 478 718 l 635 718 l 635 561 q 526 550 581 556 l 519 496 q 508 447 515 456 q 465 435 501 439 q 426 424 435 431 q 417 399 417 418 q 426 372 417 379 q 465 363 435 365 q 508 350 501 358 q 519 301 515 342 l 526 247 q 635 236 581 242 l 635 79 l 478 79 l 472 133 q 460 181 467 172 q 417 193 453 189 q 375 206 382 197 q 363 254 368 214 q 359 283 361 272 q 353 299 357 293 q 343 307 349 306 q 326 308 338 308 q 301 299 307 308 q 290 254 294 289 l 285 199 q 176 188 231 193 q 164 79 169 133 l 19 79 l 19 236 l 67 242 q 110 254 103 246 q 121 301 117 263 l 128 357 l 182 363 q 227 372 218 365 q 236 398 236 378 q 227 424 236 418 q 182 435 218 431 l 128 440 l 121 496 q 110 543 117 535 q 67 556 103 551 l 19 561 l 15 626 q 18 708 11 690 z "},"y":{"ha":646,"x_min":11,"x_max":635,"o":"m 18 746 q 111 758 24 761 l 199 754 q 211 368 206 561 l 440 368 q 453 754 447 561 l 633 754 l 633 54 q 501 42 568 49 q 489 -79 494 -18 l 292 -82 q 57 -75 90 -85 q 23 -57 28 -68 q 18 14 18 -46 l 18 90 l 440 103 l 440 175 l 163 188 l 151 308 l 18 319 l 14 525 q 18 746 13 731 z "},"z":{"ha":660,"x_min":10,"x_max":647,"o":"m 18 708 q 83 721 22 718 q 335 722 143 724 l 647 718 l 647 561 q 538 550 593 556 l 532 496 q 520 447 528 456 q 478 435 513 439 q 435 423 443 431 q 424 381 428 415 q 411 338 419 344 q 363 326 403 331 q 334 322 344 324 q 317 316 324 321 q 310 306 311 311 q 308 290 308 300 l 308 260 l 647 247 l 647 90 l 19 90 l 19 247 q 139 260 79 254 l 146 314 q 153 353 149 343 q 165 367 157 363 q 200 375 174 371 q 234 382 225 378 q 247 395 243 386 q 254 429 251 404 q 267 472 258 464 q 315 483 275 479 q 360 492 350 486 q 369 519 369 499 l 369 550 l 19 561 l 15 626 q 18 708 11 692 z "},"{":{"ha":429,"x_min":14,"x_max":419,"o":"m 225 831 q 273 852 250 847 q 340 856 296 857 l 413 851 l 413 804 q 410 772 413 782 q 397 754 407 761 q 364 738 388 747 q 283 696 311 717 l 250 674 l 250 124 l 283 101 q 392 36 347 57 q 415 18 410 29 q 417 -21 419 7 l 413 -67 l 343 -69 q 276 -67 296 -72 q 228 -39 257 -62 q 163 4 183 -3 q 140 24 140 13 q 111 49 140 38 q 85 77 89 57 q 78 207 81 97 q 78 208 78 207 q 65 351 75 338 q 44 363 61 358 q 19 377 25 367 q 14 417 14 388 q 19 456 14 446 q 44 471 25 467 q 72 497 67 476 q 81 626 76 517 q 81 628 81 628 l 86 778 l 135 792 q 225 831 183 801 z "},"|":{"ha":13,"x_min":0,"x_max":0,"o":""},"}":{"ha":419,"x_min":13,"x_max":407,"o":"m 22 910 q 125 914 40 928 q 235 874 210 900 q 289 851 250 861 l 333 838 l 340 664 q 349 511 344 533 q 376 483 354 489 q 395 475 389 481 q 404 460 401 469 q 407 429 407 450 q 404 398 407 408 q 395 383 401 388 q 376 375 389 378 q 349 352 354 369 q 343 247 344 335 q 335 141 340 163 q 306 97 329 119 q 207 29 258 53 q 169 4 186 19 q 85 -10 149 -14 l 19 -6 l 17 40 q 21 82 14 72 q 67 110 28 92 q 122 146 122 135 q 131 158 122 151 q 153 169 140 165 l 183 181 l 183 736 l 150 754 q 127 765 144 757 q 94 781 110 774 q 65 796 78 789 q 23 823 32 813 q 14 861 14 833 q 22 910 14 903 z "},"~":{"ha":736,"x_min":11,"x_max":726,"o":"m 81 593 l 151 664 l 332 664 l 403 593 q 471 490 471 524 q 491 451 471 457 q 538 472 511 446 q 625 553 603 539 q 679 565 647 568 q 706 560 699 564 q 717 547 714 556 q 722 518 721 539 q 714 471 725 489 q 656 406 703 453 l 586 338 l 496 340 q 408 353 417 343 q 401 381 403 361 q 322 486 396 417 q 238 556 249 556 q 165 496 231 556 q 106 445 125 456 q 61 438 88 435 q 24 447 32 440 q 15 481 17 453 q 24 526 13 507 q 81 593 35 546 z "},"¢":{"ha":13,"x_min":0,"x_max":0,"o":""},"£":{"ha":792,"x_min":14,"x_max":782,"o":"m 197 1018 q 419 1026 204 1026 q 605 1023 571 1026 q 649 1004 639 1019 q 664 986 653 994 q 686 976 675 978 q 718 944 714 972 q 751 906 722 917 q 772 894 767 900 q 780 868 778 888 q 778 813 782 849 l 775 731 l 693 726 q 622 728 635 725 q 600 754 608 732 q 587 776 596 768 q 571 785 578 785 q 539 810 553 785 q 523 826 533 821 q 490 832 513 831 q 417 833 468 833 q 323 829 340 833 q 299 804 306 825 q 283 783 294 793 q 261 769 272 772 q 241 749 244 765 q 240 668 238 733 l 243 574 q 472 561 358 568 l 472 489 l 360 483 q 239 453 226 476 q 268 435 243 444 q 290 422 285 428 q 297 394 294 417 q 296 329 300 372 l 294 236 l 356 232 q 410 233 399 229 q 429 257 422 238 q 444 280 433 269 q 464 292 454 290 q 483 305 475 294 q 493 328 492 315 q 508 352 496 347 q 575 357 521 357 l 654 357 l 657 274 q 656 203 660 217 q 629 181 653 189 q 600 144 600 169 q 571 108 600 121 q 549 93 558 104 q 538 69 539 82 l 533 42 l 88 42 l 81 72 q 44 108 72 101 q 18 127 22 114 q 14 199 14 140 l 14 283 l 60 288 q 104 303 103 290 q 81 318 104 311 q 60 360 63 322 q 58 599 57 397 l 63 875 l 93 882 q 126 915 122 889 q 138 939 128 928 q 160 954 147 950 q 181 969 172 958 q 189 988 189 979 q 197 1018 189 1011 z "},"§":{"ha":13,"x_min":0,"x_max":0,"o":""},"¿":{"ha":13,"x_min":0,"x_max":0,"o":""},"À":{"ha":13,"x_min":0,"x_max":0,"o":""},"Á":{"ha":13,"x_min":0,"x_max":0,"o":""},"Â":{"ha":13,"x_min":0,"x_max":0,"o":""},"Ä":{"ha":13,"x_min":0,"x_max":0,"o":""},"Ç":{"ha":13,"x_min":0,"x_max":0,"o":""},"È":{"ha":13,"x_min":0,"x_max":0,"o":""},"É":{"ha":13,"x_min":0,"x_max":0,"o":""},"Ê":{"ha":13,"x_min":0,"x_max":0,"o":""},"Ë":{"ha":13,"x_min":0,"x_max":0,"o":""},"Î":{"ha":13,"x_min":0,"x_max":0,"o":""},"Ï":{"ha":13,"x_min":0,"x_max":0,"o":""},"Ñ":{"ha":13,"x_min":0,"x_max":0,"o":""},"Ó":{"ha":13,"x_min":0,"x_max":0,"o":""},"Ô":{"ha":13,"x_min":0,"x_max":0,"o":""},"Ö":{"ha":13,"x_min":0,"x_max":0,"o":""},"Ù":{"ha":13,"x_min":0,"x_max":0,"o":""},"Ú":{"ha":13,"x_min":0,"x_max":0,"o":""},"Û":{"ha":13,"x_min":0,"x_max":0,"o":""},"Ü":{"ha":13,"x_min":0,"x_max":0,"o":""},"ß":{"ha":13,"x_min":0,"x_max":0,"o":""},"à":{"ha":13,"x_min":0,"x_max":0,"o":""},"á":{"ha":13,"x_min":0,"x_max":0,"o":""},"â":{"ha":13,"x_min":0,"x_max":0,"o":""},"ä":{"ha":13,"x_min":0,"x_max":0,"o":""},"ç":{"ha":13,"x_min":0,"x_max":0,"o":""},"è":{"ha":13,"x_min":0,"x_max":0,"o":""},"é":{"ha":13,"x_min":0,"x_max":0,"o":""},"ê":{"ha":13,"x_min":0,"x_max":0,"o":""},"ë":{"ha":13,"x_min":0,"x_max":0,"o":""},"î":{"ha":13,"x_min":0,"x_max":0,"o":""},"ï":{"ha":13,"x_min":0,"x_max":0,"o":""},"ó":{"ha":13,"x_min":0,"x_max":0,"o":""},"ô":{"ha":13,"x_min":0,"x_max":0,"o":""},"ö":{"ha":13,"x_min":0,"x_max":0,"o":""},"ù":{"ha":13,"x_min":0,"x_max":0,"o":""},"ú":{"ha":13,"x_min":0,"x_max":0,"o":""},"û":{"ha":13,"x_min":0,"x_max":0,"o":""},"ü":{"ha":13,"x_min":0,"x_max":0,"o":""},"ę":{"ha":13,"x_min":0,"x_max":0,"o":""},"’":{"ha":301,"x_min":11,"x_max":290,"o":"m 142 911 q 218 915 150 919 l 283 913 l 288 836 q 289 794 288 808 q 286 770 290 779 q 277 757 282 761 q 260 749 272 753 q 238 736 247 744 q 229 719 229 728 q 186 680 229 696 q 88 667 143 664 q 26 675 36 669 q 14 708 17 681 q 26 752 11 738 q 107 796 42 767 q 128 815 122 803 q 133 856 133 828 q 142 911 133 903 z "},"“":{"ha":579,"x_min":11,"x_max":569,"o":"m 129 210 q 213 215 139 219 l 285 211 l 288 147 q 306 81 292 92 q 365 90 319 71 q 403 114 394 103 q 414 160 411 125 l 417 211 l 563 211 l 565 136 q 565 73 568 89 q 544 49 561 57 q 519 18 519 35 q 469 -20 519 -4 q 363 -33 419 -36 q 305 -25 314 -31 q 293 10 296 -19 q 284 40 290 32 q 265 49 278 49 q 246 40 256 49 q 231 21 236 32 q 174 -22 221 -6 q 74 -33 128 -39 q 26 -24 33 -31 q 15 15 18 -18 q 19 58 13 49 q 65 86 26 68 q 113 113 106 103 q 121 156 121 124 q 129 210 121 201 z "},"”":{"ha":485,"x_min":14,"x_max":474,"o":"m 22 886 q 104 892 32 896 l 176 888 l 181 818 q 178 754 183 771 q 149 713 172 738 q 98 679 114 679 q 49 711 82 679 q 20 751 26 733 q 14 813 14 769 q 22 886 14 878 m 313 886 q 389 892 321 896 l 454 888 l 465 819 q 470 756 474 769 q 439 714 467 742 q 388 679 404 679 q 339 711 372 679 q 310 751 317 733 q 304 813 304 769 q 313 886 304 878 z "},"•":{"ha":13,"x_min":0,"x_max":0,"o":""},"€":{"ha":807,"x_min":13,"x_max":794,"o":"m 210 949 l 221 978 l 436 978 q 653 968 632 978 q 667 954 661 964 q 699 931 681 931 q 715 922 706 931 q 728 901 724 913 q 743 879 732 889 q 767 867 754 869 q 790 851 786 864 q 794 774 794 838 l 794 682 l 710 682 q 637 686 650 682 q 621 710 624 690 q 610 733 619 722 q 590 749 601 744 q 554 779 561 760 q 528 793 550 790 q 435 794 506 796 q 339 788 356 792 q 319 764 322 783 q 286 724 315 736 q 260 707 265 717 q 258 668 256 697 l 263 622 q 432 610 347 615 l 432 538 l 347 532 q 274 522 286 526 q 263 495 263 517 q 274 469 263 474 q 347 458 286 464 q 395 456 382 457 q 419 449 408 454 q 431 440 429 444 q 432 423 432 435 q 431 406 432 411 q 419 396 429 400 q 395 390 408 392 q 347 386 382 389 l 263 381 l 258 340 q 260 307 256 317 q 281 293 265 297 q 295 286 288 292 q 309 274 303 281 q 318 258 315 267 q 342 233 325 238 q 438 229 360 229 q 533 233 515 229 q 557 258 550 238 q 572 281 561 271 q 592 292 582 290 q 611 305 603 294 q 621 328 619 315 q 637 353 624 349 q 710 357 650 357 l 794 357 l 794 272 q 790 199 794 213 q 764 181 786 186 q 731 147 733 174 q 719 125 728 136 q 698 109 710 114 q 676 93 686 104 q 665 69 667 82 l 661 42 l 214 42 l 211 69 q 199 93 208 82 q 178 109 190 104 q 157 125 167 114 q 146 147 147 136 q 111 181 142 174 q 85 201 90 186 q 78 282 81 215 q 74 347 76 328 q 65 374 71 365 q 46 386 60 382 q 15 423 15 399 q 46 458 15 447 q 75 495 75 471 q 46 532 75 519 q 14 574 14 543 q 46 615 14 604 q 70 640 65 624 q 78 733 75 657 q 85 825 81 810 q 111 846 90 840 q 146 881 142 853 q 156 903 147 893 q 175 915 164 913 q 194 927 185 917 q 210 949 204 938 z "}}}
